<mxfile host="app.diagrams.net" modified="2024-05-22T02:54:26.610Z" agent="Mozilla/5.0 (Macintosh; Intel Mac OS X 10_15_7) AppleWebKit/537.36 (KHTML, like Gecko) Chrome/124.0.0.0 Safari/537.36" etag="2TbhZE-_K_R3y6_hQV5p" version="24.4.0" type="github">
  <diagram name="第 1 页" id="0N3-7GCmC0MNpS1LOGUZ">
    <mxGraphModel dx="954" dy="537" grid="1" gridSize="10" guides="1" tooltips="1" connect="1" arrows="1" fold="1" page="1" pageScale="1" pageWidth="827" pageHeight="1169" math="0" shadow="0">
      <root>
        <mxCell id="0" />
        <mxCell id="1" parent="0" />
        <mxCell id="Fsoi2ilbe3J_ZA-8UHdk-4" value="" style="group" vertex="1" connectable="0" parent="1">
          <mxGeometry x="160" y="200" width="170" height="110" as="geometry" />
        </mxCell>
        <mxCell id="Fsoi2ilbe3J_ZA-8UHdk-1" value="&lt;h1 style=&quot;margin-top: 0px;&quot;&gt;区块链A&lt;/h1&gt;" style="rounded=0;whiteSpace=wrap;html=1;align=center;" vertex="1" parent="Fsoi2ilbe3J_ZA-8UHdk-4">
          <mxGeometry y="-40" width="170" height="150" as="geometry" />
        </mxCell>
        <mxCell id="Fsoi2ilbe3J_ZA-8UHdk-3" value="端点合约" style="rounded=0;whiteSpace=wrap;html=1;" vertex="1" parent="Fsoi2ilbe3J_ZA-8UHdk-4">
          <mxGeometry x="90" y="50" width="80" height="40" as="geometry" />
        </mxCell>
        <mxCell id="Fsoi2ilbe3J_ZA-8UHdk-8" value="" style="group" vertex="1" connectable="0" parent="1">
          <mxGeometry x="580" y="200" width="170" height="110" as="geometry" />
        </mxCell>
        <mxCell id="Fsoi2ilbe3J_ZA-8UHdk-9" value="&lt;h1 style=&quot;margin-top: 0px;&quot;&gt;区块链B&lt;/h1&gt;" style="rounded=0;whiteSpace=wrap;html=1;align=center;" vertex="1" parent="Fsoi2ilbe3J_ZA-8UHdk-8">
          <mxGeometry y="-40" width="170" height="150" as="geometry" />
        </mxCell>
        <mxCell id="Fsoi2ilbe3J_ZA-8UHdk-10" value="端点合约" style="rounded=0;whiteSpace=wrap;html=1;" vertex="1" parent="Fsoi2ilbe3J_ZA-8UHdk-8">
          <mxGeometry y="50" width="80" height="40" as="geometry" />
        </mxCell>
      </root>
    </mxGraphModel>
  </diagram>
</mxfile>
